<svg viewBox="-39.0 -39.0 1718.4 1238.4" xmlns="http://www.w3.org/2000/svg">
<rect width="120.0" height="80.0" x="1310.0" y="855.0" fill="coral" stroke="Olive" stroke-width="1.0px" />
<text x="1310.0" y="855.0" dominant-baseline="hanging">b09.10</text><rect width="120.0" height="80.0" x="1310.0" y="95.0" fill="coral" stroke="Olive" stroke-width="1.0px" />
<text x="1310.0" y="95.0" dominant-baseline="hanging">b01.10</text><rect width="120.0" height="80.0" x="1310.0" y="950.0" fill="coral" stroke="Olive" stroke-width="1.0px" />
<text x="1310.0" y="950.0" dominant-baseline="hanging">b010.10</text><rect width="120.0" height="80.0" x="770.0" y="380.0" fill="coral" stroke="Olive" stroke-width="1.0px" />
<text x="770.0" y="380.0" dominant-baseline="hanging">b04.6</text><rect width="120.0" height="80.0" x="1310.0" y="570.0" fill="coral" stroke="Olive" stroke-width="1.0px" />
<text x="1310.0" y="570.0" dominant-baseline="hanging">b06.10</text><rect width="120.0" height="80.0" x="500.0" y="950.0" fill="coral" stroke="Olive" stroke-width="1.0px" />
<text x="500.0" y="950.0" dominant-baseline="hanging">b010.4</text><rect width="120.0" height="80.0" x="770.0" y="760.0" fill="coral" stroke="Olive" stroke-width="1.0px" />
<text x="770.0" y="760.0" dominant-baseline="hanging">b08.6</text><rect width="120.0" height="80.0" x="1310.0" y="475.0" fill="coral" stroke="Olive" stroke-width="1.0px" />
<text x="1310.0" y="475.0" dominant-baseline="hanging">b05.10</text><rect width="120.0" height="80.0" x="1310.0" y="760.0" fill="coral" stroke="Olive" stroke-width="1.0px" />
<text x="1310.0" y="760.0" dominant-baseline="hanging">b08.10</text><rect width="120.0" height="80.0" x="500.0" y="665.0" fill="coral" stroke="Olive" stroke-width="1.0px" />
<text x="500.0" y="665.0" dominant-baseline="hanging">b07.4</text><rect width="120.0" height="80.0" x="635.0" y="665.0" fill="coral" stroke="Olive" stroke-width="1.0px" />
<text x="635.0" y="665.0" dominant-baseline="hanging">b07.5</text><rect width="120.0" height="80.0" x="770.0" y="665.0" fill="coral" stroke="Olive" stroke-width="1.0px" />
<text x="770.0" y="665.0" dominant-baseline="hanging">b07.6</text><rect width="120.0" height="80.0" x="1040.0" y="950.0" fill="coral" stroke="Olive" stroke-width="1.0px" />
<text x="1040.0" y="950.0" dominant-baseline="hanging">b010.8</text><rect width="120.0" height="80.0" x="1310.0" y="190.0" fill="coral" stroke="Olive" stroke-width="1.0px" />
<text x="1310.0" y="190.0" dominant-baseline="hanging">b02.10</text><rect width="120.0" height="80.0" x="1310.0" y="665.0" fill="coral" stroke="Olive" stroke-width="1.0px" />
<text x="1310.0" y="665.0" dominant-baseline="hanging">b07.10</text><rect width="120.0" height="80.0" x="95.0" y="190.0" fill="coral" stroke="Olive" stroke-width="1.0px" />
<text x="95.0" y="190.0" dominant-baseline="hanging">b02.1</text><rect width="120.0" height="80.0" x="500.0" y="760.0" fill="coral" stroke="Olive" stroke-width="1.0px" />
<text x="500.0" y="760.0" dominant-baseline="hanging">b08.4</text><rect width="120.0" height="80.0" x="635.0" y="190.0" fill="coral" stroke="Olive" stroke-width="1.0px" />
<text x="635.0" y="190.0" dominant-baseline="hanging">b02.5</text><rect width="120.0" height="80.0" x="770.0" y="285.0" fill="coral" stroke="Olive" stroke-width="1.0px" />
<text x="770.0" y="285.0" dominant-baseline="hanging">b03.6</text><rect width="120.0" height="80.0" x="1040.0" y="760.0" fill="coral" stroke="Olive" stroke-width="1.0px" />
<text x="1040.0" y="760.0" dominant-baseline="hanging">b08.8</text><rect width="120.0" height="80.0" x="1175.0" y="950.0" fill="coral" stroke="Olive" stroke-width="1.0px" />
<text x="1175.0" y="950.0" dominant-baseline="hanging">b010.9</text><rect width="120.0" height="80.0" x="1310.0" y="380.0" fill="coral" stroke="Olive" stroke-width="1.0px" />
<text x="1310.0" y="380.0" dominant-baseline="hanging">b04.10</text><rect width="120.0" height="80.0" x="95.0" y="95.0" fill="coral" stroke="Olive" stroke-width="1.0px" />
<text x="95.0" y="95.0" dominant-baseline="hanging">b01.1</text><rect width="120.0" height="80.0" x="95.0" y="285.0" fill="coral" stroke="Olive" stroke-width="1.0px" />
<text x="95.0" y="285.0" dominant-baseline="hanging">b03.1</text><rect width="120.0" height="80.0" x="500.0" y="855.0" fill="coral" stroke="Olive" stroke-width="1.0px" />
<text x="500.0" y="855.0" dominant-baseline="hanging">b09.4</text><rect width="120.0" height="80.0" x="635.0" y="95.0" fill="coral" stroke="Olive" stroke-width="1.0px" />
<text x="635.0" y="95.0" dominant-baseline="hanging">b01.5</text><rect width="120.0" height="80.0" x="635.0" y="380.0" fill="coral" stroke="Olive" stroke-width="1.0px" />
<text x="635.0" y="380.0" dominant-baseline="hanging">b04.5</text><rect width="120.0" height="80.0" x="635.0" y="855.0" fill="coral" stroke="Olive" stroke-width="1.0px" />
<text x="635.0" y="855.0" dominant-baseline="hanging">b09.5</text><rect width="120.0" height="80.0" x="905.0" y="285.0" fill="coral" stroke="Olive" stroke-width="1.0px" />
<text x="905.0" y="285.0" dominant-baseline="hanging">b03.7</text><rect width="120.0" height="80.0" x="1040.0" y="855.0" fill="coral" stroke="Olive" stroke-width="1.0px" />
<text x="1040.0" y="855.0" dominant-baseline="hanging">b09.8</text><rect width="120.0" height="80.0" x="1175.0" y="570.0" fill="coral" stroke="Olive" stroke-width="1.0px" />
<text x="1175.0" y="570.0" dominant-baseline="hanging">b06.9</text><rect width="120.0" height="80.0" x="1310.0" y="285.0" fill="coral" stroke="Olive" stroke-width="1.0px" />
<text x="1310.0" y="285.0" dominant-baseline="hanging">b03.10</text><rect width="120.0" height="80.0" x="95.0" y="855.0" fill="coral" stroke="Olive" stroke-width="1.0px" />
<text x="95.0" y="855.0" dominant-baseline="hanging">b09.1</text><rect width="120.0" height="80.0" x="635.0" y="285.0" fill="coral" stroke="Olive" stroke-width="1.0px" />
<text x="635.0" y="285.0" dominant-baseline="hanging">b03.5</text><rect width="120.0" height="80.0" x="635.0" y="760.0" fill="coral" stroke="Olive" stroke-width="1.0px" />
<text x="635.0" y="760.0" dominant-baseline="hanging">b08.5</text><rect width="120.0" height="80.0" x="770.0" y="190.0" fill="coral" stroke="Olive" stroke-width="1.0px" />
<text x="770.0" y="190.0" dominant-baseline="hanging">b02.6</text><rect width="120.0" height="80.0" x="905.0" y="95.0" fill="coral" stroke="Olive" stroke-width="1.0px" />
<text x="905.0" y="95.0" dominant-baseline="hanging">b01.7</text><rect width="120.0" height="80.0" x="905.0" y="760.0" fill="coral" stroke="Olive" stroke-width="1.0px" />
<text x="905.0" y="760.0" dominant-baseline="hanging">b08.7</text><rect width="120.0" height="80.0" x="1175.0" y="285.0" fill="coral" stroke="Olive" stroke-width="1.0px" />
<text x="1175.0" y="285.0" dominant-baseline="hanging">b03.9</text><rect width="120.0" height="80.0" x="1175.0" y="665.0" fill="coral" stroke="Olive" stroke-width="1.0px" />
<text x="1175.0" y="665.0" dominant-baseline="hanging">b07.9</text><rect width="120.0" height="80.0" x="95.0" y="380.0" fill="coral" stroke="Olive" stroke-width="1.0px" />
<text x="95.0" y="380.0" dominant-baseline="hanging">b04.1</text><rect width="120.0" height="80.0" x="365.0" y="95.0" fill="coral" stroke="Olive" stroke-width="1.0px" />
<text x="365.0" y="95.0" dominant-baseline="hanging">b01.3</text><rect width="120.0" height="80.0" x="770.0" y="95.0" fill="coral" stroke="Olive" stroke-width="1.0px" />
<text x="770.0" y="95.0" dominant-baseline="hanging">b01.6</text><rect width="120.0" height="80.0" x="770.0" y="855.0" fill="coral" stroke="Olive" stroke-width="1.0px" />
<text x="770.0" y="855.0" dominant-baseline="hanging">b09.6</text><rect width="120.0" height="80.0" x="905.0" y="190.0" fill="coral" stroke="Olive" stroke-width="1.0px" />
<text x="905.0" y="190.0" dominant-baseline="hanging">b02.7</text><rect width="120.0" height="80.0" x="905.0" y="665.0" fill="coral" stroke="Olive" stroke-width="1.0px" />
<text x="905.0" y="665.0" dominant-baseline="hanging">b07.7</text><rect width="120.0" height="80.0" x="905.0" y="950.0" fill="coral" stroke="Olive" stroke-width="1.0px" />
<text x="905.0" y="950.0" dominant-baseline="hanging">b010.7</text><rect width="120.0" height="80.0" x="1175.0" y="190.0" fill="coral" stroke="Olive" stroke-width="1.0px" />
<text x="1175.0" y="190.0" dominant-baseline="hanging">b02.9</text><rect width="120.0" height="80.0" x="1175.0" y="475.0" fill="coral" stroke="Olive" stroke-width="1.0px" />
<text x="1175.0" y="475.0" dominant-baseline="hanging">b05.9</text><rect width="120.0" height="80.0" x="1175.0" y="760.0" fill="coral" stroke="Olive" stroke-width="1.0px" />
<text x="1175.0" y="760.0" dominant-baseline="hanging">b08.9</text><rect width="120.0" height="80.0" x="95.0" y="475.0" fill="coral" stroke="Olive" stroke-width="1.0px" />
<text x="95.0" y="475.0" dominant-baseline="hanging">b05.1</text><rect width="120.0" height="80.0" x="95.0" y="950.0" fill="coral" stroke="Olive" stroke-width="1.0px" />
<text x="95.0" y="950.0" dominant-baseline="hanging">b010.1</text><rect width="120.0" height="80.0" x="365.0" y="380.0" fill="coral" stroke="Olive" stroke-width="1.0px" />
<text x="365.0" y="380.0" dominant-baseline="hanging">b04.3</text><rect width="120.0" height="80.0" x="635.0" y="950.0" fill="coral" stroke="Olive" stroke-width="1.0px" />
<text x="635.0" y="950.0" dominant-baseline="hanging">b010.5</text><rect width="120.0" height="80.0" x="770.0" y="950.0" fill="coral" stroke="Olive" stroke-width="1.0px" />
<text x="770.0" y="950.0" dominant-baseline="hanging">b010.6</text><rect width="120.0" height="80.0" x="905.0" y="475.0" fill="coral" stroke="Olive" stroke-width="1.0px" />
<text x="905.0" y="475.0" dominant-baseline="hanging">b05.7</text><rect width="120.0" height="80.0" x="905.0" y="855.0" fill="coral" stroke="Olive" stroke-width="1.0px" />
<text x="905.0" y="855.0" dominant-baseline="hanging">b09.7</text><rect width="120.0" height="80.0" x="1040.0" y="570.0" fill="coral" stroke="Olive" stroke-width="1.0px" />
<text x="1040.0" y="570.0" dominant-baseline="hanging">b06.8</text><rect width="120.0" height="80.0" x="1175.0" y="95.0" fill="coral" stroke="Olive" stroke-width="1.0px" />
<text x="1175.0" y="95.0" dominant-baseline="hanging">b01.9</text><rect width="120.0" height="80.0" x="1175.0" y="380.0" fill="coral" stroke="Olive" stroke-width="1.0px" />
<text x="1175.0" y="380.0" dominant-baseline="hanging">b04.9</text><rect width="120.0" height="80.0" x="1175.0" y="855.0" fill="coral" stroke="Olive" stroke-width="1.0px" />
<text x="1175.0" y="855.0" dominant-baseline="hanging">b09.9</text><rect width="120.0" height="80.0" x="95.0" y="760.0" fill="coral" stroke="Olive" stroke-width="1.0px" />
<text x="95.0" y="760.0" dominant-baseline="hanging">b08.1</text><rect width="120.0" height="80.0" x="230.0" y="190.0" fill="coral" stroke="Olive" stroke-width="1.0px" />
<text x="230.0" y="190.0" dominant-baseline="hanging">b02.2</text><rect width="120.0" height="80.0" x="365.0" y="285.0" fill="coral" stroke="Olive" stroke-width="1.0px" />
<text x="365.0" y="285.0" dominant-baseline="hanging">b03.3</text><rect width="120.0" height="80.0" x="500.0" y="285.0" fill="coral" stroke="Olive" stroke-width="1.0px" />
<text x="500.0" y="285.0" dominant-baseline="hanging">b03.4</text><rect width="120.0" height="80.0" x="905.0" y="380.0" fill="coral" stroke="Olive" stroke-width="1.0px" />
<text x="905.0" y="380.0" dominant-baseline="hanging">b04.7</text><rect width="120.0" height="80.0" x="905.0" y="570.0" fill="coral" stroke="Olive" stroke-width="1.0px" />
<text x="905.0" y="570.0" dominant-baseline="hanging">b06.7</text><rect width="120.0" height="80.0" x="1040.0" y="285.0" fill="coral" stroke="Olive" stroke-width="1.0px" />
<text x="1040.0" y="285.0" dominant-baseline="hanging">b03.8</text><rect width="120.0" height="80.0" x="1040.0" y="665.0" fill="coral" stroke="Olive" stroke-width="1.0px" />
<text x="1040.0" y="665.0" dominant-baseline="hanging">b07.8</text><rect width="120.0" height="80.0" x="95.0" y="665.0" fill="coral" stroke="Olive" stroke-width="1.0px" />
<text x="95.0" y="665.0" dominant-baseline="hanging">b07.1</text><rect width="120.0" height="80.0" x="230.0" y="95.0" fill="coral" stroke="Olive" stroke-width="1.0px" />
<text x="230.0" y="95.0" dominant-baseline="hanging">b01.2</text><rect width="120.0" height="80.0" x="230.0" y="760.0" fill="coral" stroke="Olive" stroke-width="1.0px" />
<text x="230.0" y="760.0" dominant-baseline="hanging">b08.2</text><rect width="120.0" height="80.0" x="365.0" y="190.0" fill="coral" stroke="Olive" stroke-width="1.0px" />
<text x="365.0" y="190.0" dominant-baseline="hanging">b02.3</text><rect width="120.0" height="80.0" x="500.0" y="95.0" fill="coral" stroke="Olive" stroke-width="1.0px" />
<text x="500.0" y="95.0" dominant-baseline="hanging">b01.4</text><rect width="120.0" height="80.0" x="500.0" y="475.0" fill="coral" stroke="Olive" stroke-width="1.0px" />
<text x="500.0" y="475.0" dominant-baseline="hanging">b05.4</text><rect width="120.0" height="80.0" x="1040.0" y="95.0" fill="coral" stroke="Olive" stroke-width="1.0px" />
<text x="1040.0" y="95.0" dominant-baseline="hanging">b01.8</text><rect width="120.0" height="80.0" x="1040.0" y="380.0" fill="coral" stroke="Olive" stroke-width="1.0px" />
<text x="1040.0" y="380.0" dominant-baseline="hanging">b04.8</text><rect width="120.0" height="80.0" x="95.0" y="570.0" fill="coral" stroke="Olive" stroke-width="1.0px" />
<text x="95.0" y="570.0" dominant-baseline="hanging">b06.1</text><rect width="120.0" height="80.0" x="230.0" y="285.0" fill="coral" stroke="Olive" stroke-width="1.0px" />
<text x="230.0" y="285.0" dominant-baseline="hanging">b03.2</text><rect width="120.0" height="80.0" x="230.0" y="950.0" fill="coral" stroke="Olive" stroke-width="1.0px" />
<text x="230.0" y="950.0" dominant-baseline="hanging">b010.2</text><rect width="120.0" height="80.0" x="365.0" y="855.0" fill="coral" stroke="Olive" stroke-width="1.0px" />
<text x="365.0" y="855.0" dominant-baseline="hanging">b09.3</text><rect width="120.0" height="80.0" x="500.0" y="190.0" fill="coral" stroke="Olive" stroke-width="1.0px" />
<text x="500.0" y="190.0" dominant-baseline="hanging">b02.4</text><rect width="120.0" height="80.0" x="500.0" y="380.0" fill="coral" stroke="Olive" stroke-width="1.0px" />
<text x="500.0" y="380.0" dominant-baseline="hanging">b04.4</text><rect width="120.0" height="80.0" x="500.0" y="570.0" fill="coral" stroke="Olive" stroke-width="1.0px" />
<text x="500.0" y="570.0" dominant-baseline="hanging">b06.4</text><rect width="120.0" height="80.0" x="1040.0" y="190.0" fill="coral" stroke="Olive" stroke-width="1.0px" />
<text x="1040.0" y="190.0" dominant-baseline="hanging">b02.8</text><rect width="120.0" height="80.0" x="1040.0" y="475.0" fill="coral" stroke="Olive" stroke-width="1.0px" />
<text x="1040.0" y="475.0" dominant-baseline="hanging">b05.8</text><rect width="120.0" height="80.0" x="230.0" y="665.0" fill="coral" stroke="Olive" stroke-width="1.0px" />
<text x="230.0" y="665.0" dominant-baseline="hanging">b07.2</text><rect width="120.0" height="80.0" x="230.0" y="855.0" fill="coral" stroke="Olive" stroke-width="1.0px" />
<text x="230.0" y="855.0" dominant-baseline="hanging">b09.2</text><rect width="120.0" height="80.0" x="365.0" y="760.0" fill="coral" stroke="Olive" stroke-width="1.0px" />
<text x="365.0" y="760.0" dominant-baseline="hanging">b08.3</text><rect width="120.0" height="80.0" x="365.0" y="950.0" fill="coral" stroke="Olive" stroke-width="1.0px" />
<text x="365.0" y="950.0" dominant-baseline="hanging">b010.3</text><rect width="120.0" height="80.0" x="230.0" y="475.0" fill="coral" stroke="Olive" stroke-width="1.0px" />
<text x="230.0" y="475.0" dominant-baseline="hanging">b05.2</text><rect width="120.0" height="80.0" x="365.0" y="570.0" fill="coral" stroke="Olive" stroke-width="1.0px" />
<text x="365.0" y="570.0" dominant-baseline="hanging">b06.3</text><rect width="120.0" height="80.0" x="230.0" y="380.0" fill="coral" stroke="Olive" stroke-width="1.0px" />
<text x="230.0" y="380.0" dominant-baseline="hanging">b04.2</text><rect width="120.0" height="80.0" x="230.0" y="570.0" fill="coral" stroke="Olive" stroke-width="1.0px" />
<text x="230.0" y="570.0" dominant-baseline="hanging">b06.2</text><rect width="120.0" height="80.0" x="365.0" y="475.0" fill="coral" stroke="Olive" stroke-width="1.0px" />
<text x="365.0" y="475.0" dominant-baseline="hanging">b05.3</text><rect width="120.0" height="80.0" x="365.0" y="665.0" fill="coral" stroke="Olive" stroke-width="1.0px" />
<text x="365.0" y="665.0" dominant-baseline="hanging">b07.3</text>
<path id="path0" d="M 1373.8,91.2 1441.2,91.2 1441.2,91.2 1441.2,138.8 1441.2,138.8 1441.2,186.2 1441.2,186.2 1441.2,233.8 1441.2,233.8 1441.2,281.2 1441.2,281.2 1441.2,328.8 1441.2,328.8 1441.2,376.2 1441.2,376.2 1441.2,423.8 1441.2,423.8 1441.2,471.2 1441.2,471.2 1441.2,518.8 1441.2,518.8 1441.2,566.2 1441.2,566.2 1441.2,613.8 1441.2,613.8 1441.2,661.2 1441.2,661.2 1441.2,708.8 1441.2,708.8 1441.2,756.2 1441.2,756.2 1373.8,756.2 1373.8,756.2 1306.2,756.2 1306.2,756.2 1238.8,756.2 1238.8,756.2 1171.2,756.2 1171.2,756.2 1103.8,756.2 1103.8,756.2 1036.2,756.2 1036.2,756.2 968.8,756.2 968.8,756.2 901.2,756.2 901.2,756.2 833.8,756.2 833.8,756.2 766.2,756.2 766.2,756.2 698.8,756.2 698.8,756.2 631.2,756.2 631.2,756.2 563.8,756.2 563.8,756.2 496.2,756.2 496.2,756.2 428.8,756.2 428.8,756.2 361.2,756.2 361.2,756.2 293.8,756.2" fill="none" stroke="#d400aa" stroke-width="2"/>
<circle r="10" fill="#d400aa"><animateMotion dur="245.5s" repeatCount="indefinite" rotate="auto"><mpath href="#path0"/></animateMotion></circle>

<path id="path1" d="M 1373.8,91.2 1441.2,91.2 1441.2,91.2 1441.2,138.8 1441.2,138.8 1441.2,186.2 1441.2,186.2 1373.8,186.2 1373.8,186.2 1306.2,186.2 1306.2,186.2 1238.8,186.2 1238.8,186.2 1171.2,186.2 1171.2,186.2 1171.2,233.8 1171.2,233.8 1171.2,281.2 1171.2,281.2 1171.2,328.8 1171.2,328.8 1171.2,376.2 1171.2,376.2 1171.2,423.8 1171.2,423.8 1171.2,471.2 1171.2,471.2 1171.2,518.8 1171.2,518.8 1171.2,566.2 1171.2,566.2 1171.2,613.8 1171.2,613.8 1171.2,661.2 1171.2,661.2 1171.2,708.8 1171.2,708.8 1171.2,756.2 1171.2,756.2 1103.8,756.2 1103.8,756.2 1036.2,756.2 1036.2,756.2 968.8,756.2 968.8,756.2 901.2,756.2 901.2,756.2 833.8,756.2 833.8,756.2 766.2,756.2 766.2,756.2 698.8,756.2 698.8,756.2 631.2,756.2 631.2,756.2 563.8,756.2 563.8,756.2 496.2,756.2 496.2,756.2 428.8,756.2 428.8,756.2 361.2,756.2 361.2,756.2 293.8,756.2" fill="none" stroke="#660080" stroke-width="2"/>
<circle r="10" fill="#660080"><animateMotion dur="234.2s" repeatCount="indefinite" rotate="auto"><mpath href="#path1"/></animateMotion></circle>
</svg>