<svg width="1432.0" height="1032.0" xmlns="http://www.w3.org/2000/svg">
<rect width="120.0" height="80.0" x="95.0" y="95.0" fill="CadetBlue" stroke="gold" stroke-width="1.0px" />
<rect width="120.0" height="80.0" x="230.0" y="95.0" fill="CadetBlue" stroke="gold" stroke-width="1.0px" />
<rect width="120.0" height="80.0" x="365.0" y="95.0" fill="CadetBlue" stroke="gold" stroke-width="1.0px" />
<rect width="120.0" height="80.0" x="500.0" y="95.0" fill="CadetBlue" stroke="gold" stroke-width="1.0px" />
<rect width="120.0" height="80.0" x="635.0" y="95.0" fill="CadetBlue" stroke="gold" stroke-width="1.0px" />
<rect width="120.0" height="80.0" x="770.0" y="95.0" fill="CadetBlue" stroke="gold" stroke-width="1.0px" />
<rect width="120.0" height="80.0" x="905.0" y="95.0" fill="CadetBlue" stroke="gold" stroke-width="1.0px" />
<rect width="120.0" height="80.0" x="1040.0" y="95.0" fill="CadetBlue" stroke="gold" stroke-width="1.0px" />
<rect width="120.0" height="80.0" x="1175.0" y="95.0" fill="CadetBlue" stroke="gold" stroke-width="1.0px" />
<rect width="120.0" height="80.0" x="1310.0" y="95.0" fill="CadetBlue" stroke="gold" stroke-width="1.0px" />
<rect width="120.0" height="80.0" x="95.0" y="190.0" fill="CadetBlue" stroke="gold" stroke-width="1.0px" />
<rect width="120.0" height="80.0" x="230.0" y="190.0" fill="CadetBlue" stroke="gold" stroke-width="1.0px" />
<rect width="120.0" height="80.0" x="365.0" y="190.0" fill="CadetBlue" stroke="gold" stroke-width="1.0px" />
<rect width="120.0" height="80.0" x="500.0" y="190.0" fill="CadetBlue" stroke="gold" stroke-width="1.0px" />
<rect width="120.0" height="80.0" x="635.0" y="190.0" fill="CadetBlue" stroke="gold" stroke-width="1.0px" />
<rect width="120.0" height="80.0" x="770.0" y="190.0" fill="CadetBlue" stroke="gold" stroke-width="1.0px" />
<rect width="120.0" height="80.0" x="905.0" y="190.0" fill="CadetBlue" stroke="gold" stroke-width="1.0px" />
<rect width="120.0" height="80.0" x="1040.0" y="190.0" fill="CadetBlue" stroke="gold" stroke-width="1.0px" />
<rect width="120.0" height="80.0" x="1175.0" y="190.0" fill="CadetBlue" stroke="gold" stroke-width="1.0px" />
<rect width="120.0" height="80.0" x="1310.0" y="190.0" fill="CadetBlue" stroke="gold" stroke-width="1.0px" />
<rect width="120.0" height="80.0" x="95.0" y="285.0" fill="CadetBlue" stroke="gold" stroke-width="1.0px" />
<rect width="120.0" height="80.0" x="230.0" y="285.0" fill="CadetBlue" stroke="gold" stroke-width="1.0px" />
<rect width="120.0" height="80.0" x="365.0" y="285.0" fill="CadetBlue" stroke="gold" stroke-width="1.0px" />
<rect width="120.0" height="80.0" x="500.0" y="285.0" fill="CadetBlue" stroke="gold" stroke-width="1.0px" />
<rect width="120.0" height="80.0" x="635.0" y="285.0" fill="CadetBlue" stroke="gold" stroke-width="1.0px" />
<rect width="120.0" height="80.0" x="770.0" y="285.0" fill="CadetBlue" stroke="gold" stroke-width="1.0px" />
<rect width="120.0" height="80.0" x="905.0" y="285.0" fill="CadetBlue" stroke="gold" stroke-width="1.0px" />
<rect width="120.0" height="80.0" x="1040.0" y="285.0" fill="CadetBlue" stroke="gold" stroke-width="1.0px" />
<rect width="120.0" height="80.0" x="1175.0" y="285.0" fill="CadetBlue" stroke="gold" stroke-width="1.0px" />
<rect width="120.0" height="80.0" x="1310.0" y="285.0" fill="CadetBlue" stroke="gold" stroke-width="1.0px" />
<rect width="120.0" height="80.0" x="95.0" y="380.0" fill="CadetBlue" stroke="gold" stroke-width="1.0px" />
<rect width="120.0" height="80.0" x="230.0" y="380.0" fill="CadetBlue" stroke="gold" stroke-width="1.0px" />
<rect width="120.0" height="80.0" x="365.0" y="380.0" fill="CadetBlue" stroke="gold" stroke-width="1.0px" />
<rect width="120.0" height="80.0" x="500.0" y="380.0" fill="CadetBlue" stroke="gold" stroke-width="1.0px" />
<rect width="120.0" height="80.0" x="635.0" y="380.0" fill="CadetBlue" stroke="gold" stroke-width="1.0px" />
<rect width="120.0" height="80.0" x="770.0" y="380.0" fill="CadetBlue" stroke="gold" stroke-width="1.0px" />
<rect width="120.0" height="80.0" x="905.0" y="380.0" fill="CadetBlue" stroke="gold" stroke-width="1.0px" />
<rect width="120.0" height="80.0" x="1040.0" y="380.0" fill="CadetBlue" stroke="gold" stroke-width="1.0px" />
<rect width="120.0" height="80.0" x="1175.0" y="380.0" fill="CadetBlue" stroke="gold" stroke-width="1.0px" />
<rect width="120.0" height="80.0" x="1310.0" y="380.0" fill="CadetBlue" stroke="gold" stroke-width="1.0px" />
<rect width="120.0" height="80.0" x="95.0" y="475.0" fill="CadetBlue" stroke="gold" stroke-width="1.0px" />
<rect width="120.0" height="80.0" x="230.0" y="475.0" fill="CadetBlue" stroke="gold" stroke-width="1.0px" />
<rect width="120.0" height="80.0" x="365.0" y="475.0" fill="CadetBlue" stroke="gold" stroke-width="1.0px" />
<rect width="120.0" height="80.0" x="500.0" y="475.0" fill="CadetBlue" stroke="gold" stroke-width="1.0px" />
<rect width="120.0" height="80.0" x="635.0" y="475.0" fill="CadetBlue" stroke="gold" stroke-width="1.0px" />
<rect width="120.0" height="80.0" x="770.0" y="475.0" fill="CadetBlue" stroke="gold" stroke-width="1.0px" />
<rect width="120.0" height="80.0" x="905.0" y="475.0" fill="CadetBlue" stroke="gold" stroke-width="1.0px" />
<rect width="120.0" height="80.0" x="1040.0" y="475.0" fill="CadetBlue" stroke="gold" stroke-width="1.0px" />
<rect width="120.0" height="80.0" x="1175.0" y="475.0" fill="CadetBlue" stroke="gold" stroke-width="1.0px" />
<rect width="120.0" height="80.0" x="1310.0" y="475.0" fill="CadetBlue" stroke="gold" stroke-width="1.0px" />
<rect width="120.0" height="80.0" x="95.0" y="570.0" fill="CadetBlue" stroke="gold" stroke-width="1.0px" />
<rect width="120.0" height="80.0" x="230.0" y="570.0" fill="CadetBlue" stroke="gold" stroke-width="1.0px" />
<rect width="120.0" height="80.0" x="365.0" y="570.0" fill="CadetBlue" stroke="gold" stroke-width="1.0px" />
<rect width="120.0" height="80.0" x="500.0" y="570.0" fill="CadetBlue" stroke="gold" stroke-width="1.0px" />
<rect width="120.0" height="80.0" x="635.0" y="570.0" fill="CadetBlue" stroke="gold" stroke-width="1.0px" />
<rect width="120.0" height="80.0" x="770.0" y="570.0" fill="CadetBlue" stroke="gold" stroke-width="1.0px" />
<rect width="120.0" height="80.0" x="905.0" y="570.0" fill="CadetBlue" stroke="gold" stroke-width="1.0px" />
<rect width="120.0" height="80.0" x="1040.0" y="570.0" fill="CadetBlue" stroke="gold" stroke-width="1.0px" />
<rect width="120.0" height="80.0" x="1175.0" y="570.0" fill="CadetBlue" stroke="gold" stroke-width="1.0px" />
<rect width="120.0" height="80.0" x="1310.0" y="570.0" fill="CadetBlue" stroke="gold" stroke-width="1.0px" />
<rect width="120.0" height="80.0" x="95.0" y="665.0" fill="CadetBlue" stroke="gold" stroke-width="1.0px" />
<rect width="120.0" height="80.0" x="230.0" y="665.0" fill="CadetBlue" stroke="gold" stroke-width="1.0px" />
<rect width="120.0" height="80.0" x="365.0" y="665.0" fill="CadetBlue" stroke="gold" stroke-width="1.0px" />
<rect width="120.0" height="80.0" x="500.0" y="665.0" fill="CadetBlue" stroke="gold" stroke-width="1.0px" />
<rect width="120.0" height="80.0" x="635.0" y="665.0" fill="CadetBlue" stroke="gold" stroke-width="1.0px" />
<rect width="120.0" height="80.0" x="770.0" y="665.0" fill="CadetBlue" stroke="gold" stroke-width="1.0px" />
<rect width="120.0" height="80.0" x="905.0" y="665.0" fill="CadetBlue" stroke="gold" stroke-width="1.0px" />
<rect width="120.0" height="80.0" x="1040.0" y="665.0" fill="CadetBlue" stroke="gold" stroke-width="1.0px" />
<rect width="120.0" height="80.0" x="1175.0" y="665.0" fill="CadetBlue" stroke="gold" stroke-width="1.0px" />
<rect width="120.0" height="80.0" x="1310.0" y="665.0" fill="CadetBlue" stroke="gold" stroke-width="1.0px" />
<rect width="120.0" height="80.0" x="95.0" y="760.0" fill="CadetBlue" stroke="gold" stroke-width="1.0px" />
<rect width="120.0" height="80.0" x="230.0" y="760.0" fill="CadetBlue" stroke="gold" stroke-width="1.0px" />
<rect width="120.0" height="80.0" x="365.0" y="760.0" fill="CadetBlue" stroke="gold" stroke-width="1.0px" />
<rect width="120.0" height="80.0" x="500.0" y="760.0" fill="CadetBlue" stroke="gold" stroke-width="1.0px" />
<rect width="120.0" height="80.0" x="635.0" y="760.0" fill="CadetBlue" stroke="gold" stroke-width="1.0px" />
<rect width="120.0" height="80.0" x="770.0" y="760.0" fill="CadetBlue" stroke="gold" stroke-width="1.0px" />
<rect width="120.0" height="80.0" x="905.0" y="760.0" fill="CadetBlue" stroke="gold" stroke-width="1.0px" />
<rect width="120.0" height="80.0" x="1040.0" y="760.0" fill="CadetBlue" stroke="gold" stroke-width="1.0px" />
<rect width="120.0" height="80.0" x="1175.0" y="760.0" fill="CadetBlue" stroke="gold" stroke-width="1.0px" />
<rect width="120.0" height="80.0" x="1310.0" y="760.0" fill="CadetBlue" stroke="gold" stroke-width="1.0px" />
<rect width="120.0" height="80.0" x="95.0" y="855.0" fill="CadetBlue" stroke="gold" stroke-width="1.0px" />
<rect width="120.0" height="80.0" x="230.0" y="855.0" fill="CadetBlue" stroke="gold" stroke-width="1.0px" />
<rect width="120.0" height="80.0" x="365.0" y="855.0" fill="CadetBlue" stroke="gold" stroke-width="1.0px" />
<rect width="120.0" height="80.0" x="500.0" y="855.0" fill="CadetBlue" stroke="gold" stroke-width="1.0px" />
<rect width="120.0" height="80.0" x="635.0" y="855.0" fill="CadetBlue" stroke="gold" stroke-width="1.0px" />
<rect width="120.0" height="80.0" x="770.0" y="855.0" fill="CadetBlue" stroke="gold" stroke-width="1.0px" />
<rect width="120.0" height="80.0" x="905.0" y="855.0" fill="CadetBlue" stroke="gold" stroke-width="1.0px" />
<rect width="120.0" height="80.0" x="1040.0" y="855.0" fill="CadetBlue" stroke="gold" stroke-width="1.0px" />
<rect width="120.0" height="80.0" x="1175.0" y="855.0" fill="CadetBlue" stroke="gold" stroke-width="1.0px" />
<rect width="120.0" height="80.0" x="1310.0" y="855.0" fill="CadetBlue" stroke="gold" stroke-width="1.0px" />
<rect width="120.0" height="80.0" x="95.0" y="950.0" fill="CadetBlue" stroke="gold" stroke-width="1.0px" />
<rect width="120.0" height="80.0" x="230.0" y="950.0" fill="CadetBlue" stroke="gold" stroke-width="1.0px" />
<rect width="120.0" height="80.0" x="365.0" y="950.0" fill="CadetBlue" stroke="gold" stroke-width="1.0px" />
<rect width="120.0" height="80.0" x="500.0" y="950.0" fill="CadetBlue" stroke="gold" stroke-width="1.0px" />
<rect width="120.0" height="80.0" x="635.0" y="950.0" fill="CadetBlue" stroke="gold" stroke-width="1.0px" />
<rect width="120.0" height="80.0" x="770.0" y="950.0" fill="CadetBlue" stroke="gold" stroke-width="1.0px" />
<rect width="120.0" height="80.0" x="905.0" y="950.0" fill="CadetBlue" stroke="gold" stroke-width="1.0px" />
<rect width="120.0" height="80.0" x="1040.0" y="950.0" fill="CadetBlue" stroke="gold" stroke-width="1.0px" />
<rect width="120.0" height="80.0" x="1175.0" y="950.0" fill="CadetBlue" stroke="gold" stroke-width="1.0px" />
<rect width="120.0" height="80.0" x="1310.0" y="950.0" fill="CadetBlue" stroke="gold" stroke-width="1.0px" />
</svg>